HIERARCHY
ROOT hip
{
	OFFSET	0.00  0.00  0.00 
	CHANNELS 6 Xposition Yposition Zposition Xrotation Zrotation Yrotation
	JOINT abdomen
	{
		OFFSET	0.000000 1.799998 0.000000
		CHANNELS 3 Xrotation Zrotation Yrotation
		JOINT chest
		{
			OFFSET	0.000000 4.464001 -0.360000
			CHANNELS 3 Xrotation Zrotation Yrotation
			JOINT neck
			{
				OFFSET	0.000000 5.400002 -0.144000
				CHANNELS 3 Xrotation Zrotation Yrotation
				JOINT head
				{
					OFFSET	0.000000 1.655998 0.000000
					CHANNELS 3 Xrotation Zrotation Yrotation
				}
			}
			JOINT lCollar
			{
				OFFSET	1.872000 3.528000 -0.432000
				CHANNELS 3 Yrotation Zrotation Xrotation
				JOINT lShldr
				{
					OFFSET	1.656000 0.000000 0.000000
					CHANNELS 3 Zrotation Yrotation Xrotation
					JOINT lForeArm
					{
						OFFSET	5.400000 0.000000 0.000000
						CHANNELS 3 Yrotation Zrotation Xrotation
						JOINT lHand
						{
							OFFSET	4.392000 0.000000 0.000000
							CHANNELS 3 Zrotation Yrotation Xrotation
						}
					}
				}
			}
			JOINT rCollar
			{
				OFFSET	-1.872000 3.528000 -0.432000
				CHANNELS 3 Yrotation Zrotation Xrotation
				JOINT rShldr
				{
					OFFSET	-1.656000 0.000000 0.000000
					CHANNELS 3 Zrotation Yrotation Xrotation
					JOINT rForeArm
					{
						OFFSET	-5.400000 0.000000 0.000000
						CHANNELS 3 Yrotation Zrotation Xrotation
						JOINT rHand
						{
							OFFSET	-4.392000 0.000000 0.000000
							CHANNELS 3 Zrotation Yrotation Xrotation
						}
					}
				}
			}
		}
	}
	JOINT lThigh
	{
		OFFSET	2.808000 -0.864002 0.720000
		CHANNELS 3 Xrotation Zrotation Yrotation
		JOINT lShin
		{
			OFFSET	-1.080000 -10.583999 0.000000
			CHANNELS 3 Xrotation Zrotation Yrotation
			JOINT lFoot
			{
				OFFSET	0.000000 -10.152000 -0.648000
				CHANNELS 3 Xrotation Yrotation Zrotation
				End Site
				{
					OFFSET 0.000000 -1.296000 2.448000
				}
			}
		}
	}
	JOINT rThigh
	{
		OFFSET	-2.808000 -0.864002 0.720000
		CHANNELS 3 Xrotation Zrotation Yrotation
		JOINT rShin
		{
			OFFSET	1.080000 -10.583999 0.000000
			CHANNELS 3 Xrotation Zrotation Yrotation
			JOINT rFoot
			{
				OFFSET	0.000000 -10.152000 -0.648000
				CHANNELS 3 Xrotation Yrotation Zrotation
				End Site
				{
					OFFSET 0.000000 -1.296000 2.448000
				}
			}
		}
	}
}
MOTION
Frames:     6
Frame Time: 0.033333
0.000000 23.151886 0.000000 0.000000 0.000000 0.000000 0.000000 0.000000 0.000000 0.000000 0.000000 0.000000 0.000000 0.000000 0.000000 0.000000 0.000000 0.000000 0.000000 0.000000 0.000000 0.000000 0.000000 0.000000 0.000000 0.000000 0.000000 0.000000 0.000000 0.000000 9.990230 0.000000 0.000000 0.000000 0.000000 0.000000 0.000000 0.000000 0.000000 0.000000 0.000000 0.000000 0.000000 0.000000 0.000000 0.009766 0.000000 0.000000 -0.273437 0.000000 0.000000 0.000000 -0.058594 0.000000 0.020493 0.032569 -0.011854 0.497961 0.003586 0.012903 
2.557541 8.658073 -4.709592 1.939700 0.849000 -0.090600 7.752490 -0.020036 10.356900 12.226600 1.904360 -12.108900 -23.821899 -0.992746 0.191014 -14.000000 0.000000 0.000000 -30.000000 -17.372999 -6.797200 -50.973598 -18.289600 18.709999 -42.846802 -0.000000 20.000000 6.854150 3.410730 0.000000 30.000000 17.372999 -6.797200 50.973598 18.289600 18.709999 42.846802 0.000000 20.000000 -6.854150 -3.410730 0.000000 -88.388802 26.621201 -0.467411 92.981003 -0.203401 -0.211224 -11.000000 -0.000000 -0.000000 -92.388802 -25.621201 0.467411 92.981003 0.203401 0.211224 -3.000000 10.000000 0.000000 
2.558799 9.820801 -4.695835 2.828857 0.849000 -0.090600 4.137005 -0.251633 10.091822 10.461479 1.549786 -11.588105 -16.698486 -0.992747 0.191014 -14.391188 0.000000 0.000000 -30.000000 -20.536987 -7.596590 -50.959736 -14.577559 21.527882 -39.284817 0.000000 20.000000 6.854147 3.410731 0.000000 30.000000 20.536987 -7.596590 50.959736 14.577559 21.527882 39.284817 0.000000 20.000000 -6.854147 -3.410731 0.000000 -82.474426 22.889273 -4.305294 83.453064 -2.681568 -0.211973 -10.097132 1.330514 0.016371 -86.687973 -21.964952 8.268859 84.219559 2.681565 0.206316 -2.515139 8.050085 0.036055 
2.560342 11.310546 -4.678956 3.919020 0.849000 -0.090600 -0.253037 -0.489952 9.814250 8.332110 1.181300 -10.946100 -8.033080 -0.992748 0.191014 -14.873900 0.000000 0.000000 -30.000000 -24.493998 -8.595461 -50.938526 -10.088137 25.048941 -34.674984 0.000000 20.000000 6.854145 3.410734 0.000000 30.000000 24.493998 -8.595461 50.938526 10.088137 25.048941 34.674984 0.000000 20.000000 -6.854145 -3.410734 0.000000 -75.184097 18.398001 -8.943250 71.957603 -5.000000 -0.212959 -8.744300 2.956030 0.036418 -79.630203 -17.567900 17.381399 73.628899 5.000000 0.200623 -1.694740 5.644650 0.077897 
2.561995 12.980502 -4.660864 5.095434 0.849000 -0.090600 -4.745657 -0.611674 9.657007 6.195629 0.984160 -10.251890 0.929927 -0.992749 0.191014 -15.409898 0.000000 0.000000 -30.000000 -28.048147 -9.495739 -50.933151 -5.515435 28.222462 -31.082123 0.000000 20.000000 6.854141 3.410735 0.000000 30.000000 28.048147 -9.495739 50.933151 5.515435 28.222462 31.082123 0.000000 20.000000 -6.854141 -3.410735 0.000000 -67.205330 14.007620 -13.573454 60.532475 -5.000000 -0.214327 -6.179609 4.656282 0.057762 -71.767441 -13.284784 25.394035 63.012970 5.000000 0.196018 0.209869 3.017000 0.111902 
2.563690 14.750922 -4.642337 6.358150 0.849000 -0.090600 -8.759770 -0.625000 9.619140 4.336320 0.965835 -9.550620 9.277600 -0.992751 0.191015 -16.028200 0.000000 0.000000 -30.000000 -30.000000 -10.000000 -50.973598 -1.289600 30.000000 -30.846800 -0.000000 20.000000 6.854140 3.410730 0.000000 30.000000 30.000000 -10.000000 50.973598 1.289600 30.000000 30.846800 0.000000 20.000000 -6.854140 -3.410730 0.000000 -58.564499 10.732700 -17.337000 51.276600 -5.000000 -0.216589 -0.571758 6.248800 0.079367 -62.890598 -10.136700 30.000000 54.159901 5.000000 0.195306 4.901710 0.228555 0.117848 
